#!OML:ASF X:\für Bonn\!DataBase\2005_08_12_Daniel\c3d\Daniel.ASF
:FULLY-SPECIFIED
:DEGREES
46
root -28.8376 16.3201 -25.5186 -9.87523 45.877 -716.557
lowerback 41.2239 -1.00107 2.17258
upperback 12.808 0.239532 -3.53742
thorax -5.48616 0.713188 -5.0148
lowerneck -2.2493 0.0422014 -4.95139
upperneck -4.50461 0.101672 -1.99741
head -1.01017 0.169907 0.201419
rclavicle 6.36111e-015 -9.34288e-015
rhumerus -26.2448 5.85694 -92.8779
rradius 49.0042
rwrist 0.799535
rhand -26.1966 23.3104
rfingers 7.12502
rthumb 0.355832 -6.66905
lclavicle 6.36111e-015 -9.34288e-015
lhumerus -18.1099 22.5773 82.0756
lradius 32.7063
lwrist -18.3466
lhand -13.6568 -8.52109
lfingers 7.12502
lthumb 12.46 21.0875
rfemur -2.99006 7.95779 23.1713
rtibia 59.5041
rfoot -27.5287 11.4399
rtoes -3.00712
lfemur -31.983 -10.0176 -14.771
ltibia 33.6985
lfoot -20.9345 2.0265
ltoes -13.4831
47
root -28.7595 16.2996 -25.4684 -9.86242 45.8423 -716.652
lowerback 41.1361 -0.895701 2.11613
upperback 12.8022 0.341093 -3.55334
thorax -5.45771 0.760033 -5.04095
lowerneck -2.39773 -0.0079408 -5.03434
upperneck -4.44666 0.0509411 -1.88191
head -0.967091 0.142313 0.250481
rclavicle 4.37326e-015 3.49861e-014
rhumerus -26.1039 6.03692 -92.8745
rradius 49.6967
rwrist 0.951107
rhand -26.1915 23.4173
rfingers 7.12502
rthumb 0.360777 -6.56219
lclavicle 4.37326e-015 3.49861e-014
lhumerus -18.3834 23.1552 81.829
lradius 32.512
lwrist -18.6877
lhand -13.7169 -8.55866
lfingers 7.12502
lthumb 12.4021 21.0534
rfemur -2.82367 7.92926 23.1687
rtibia 59.667
rfoot -27.5371 11.615
rtoes -2.63602
lfemur -32.102 -9.89331 -14.6865
ltibia 33.7468
lfoot -20.7163 1.91878
ltoes -13.7146
48
root -28.68 16.2806 -25.4173 -9.83069 45.7884 -716.741
lowerback 41.0704 -0.79196 2.05325
upperback 12.7826 0.435605 -3.58915
thorax -5.45207 0.803153 -5.0827
lowerneck -2.52422 -0.0491608 -5.12776
upperneck -4.4214 0.0109219 -1.73363
head -0.938109 0.12097 0.311433
rclavicle -5.02925e-014 2.32578e-014
rhumerus -25.9752 6.30476 -92.8902
rradius 50.3943
rwrist 0.994441
rhand -26.2384 23.4643
rfingers 7.12502
rthumb 0.315505 -6.51523
lclavicle -5.02925e-014 2.32578e-014
lhumerus -18.6872 23.7978 81.518
lradius 32.3204
lwrist -19.0799
lhand -13.7613 -8.55796
lfingers 7.12502
lthumb 12.3593 21.0567
rfemur -2.66415 7.9164 23.1616
rtibia 59.8144
rfoot -27.5292 11.805
rtoes -2.37072
lfemur -32.2374 -9.75597 -14.618
ltibia 33.8615
lfoot -20.3937 1.72442
ltoes -14.4671
49
root -28.6001 16.2618 -25.3669 -9.77994 45.7477 -716.816
lowerback 41.045 -0.68073 1.97713
upperback 12.7512 0.536822 -3.60184
thorax -5.4705 0.847832 -5.09593
lowerneck -2.69269 -0.102143 -5.29392
upperneck -4.37088 -0.0390007 -1.56592
head -0.894356 0.0949831 0.390357
rclavicle 2.26615e-014 -3.00165e-014
rhumerus -25.8581 6.53602 -92.8564
rradius 51.1255
rwrist 1.0308
rhand -26.247 23.469
rfingers 7.12502
rthumb 0.307151 -6.51051
lclavicle 2.26615e-014 -3.00165e-014
lhumerus -18.963 24.4931 81.2469
lradius 32.0627
lwrist -19.5689
lhand -13.7976 -8.573
lfingers 7.12502
lthumb 12.3243 21.0438
rfemur -2.50285 7.92969 23.1584
rtibia 59.9488
rfoot -27.4987 11.9609
rtoes -2.0665
lfemur -32.3926 -9.58334 -14.5854
ltibia 34.032
lfoot -19.9317 1.40228
ltoes -15.3487
50
root -28.5187 16.2438 -25.3163 -9.70725 45.716 -716.889
lowerback 41.0358 -0.583991 1.92277
upperback 12.7136 0.626824 -3.63752
thorax -5.50184 0.888329 -5.14119
lowerneck -2.90223 -0.159016 -5.43338
upperneck -4.29025 -0.0906258 -1.39196
head -0.834268 0.0667996 0.46672
rclavicle -1.41137e-014 2.3059e-014
rhumerus -25.718 6.74716 -92.8438
rradius 51.8109
rwrist 1.06785
rhand -26.3134 23.4807
rfingers 7.12502
rthumb 0.243009 -6.49891
lclavicle -1.41137e-014 2.3059e-014
lhumerus -19.2281 25.1505 80.936
lradius 31.799
lwrist -20.0367
lhand -13.8451 -8.54172
lfingers 7.12502
lthumb 12.2785 21.0778
rfemur -2.35421 7.93125 23.1404
rtibia 60.0711
rfoot -27.4706 12.1049
rtoes -1.89519
lfemur -32.5816 -9.34886 -14.5819
ltibia 34.2576
lfoot -19.3589 0.980932
ltoes -16.1615
51
root -28.4348 16.2286 -25.2659 -9.60654 45.6661 -716.93
lowerback 41.0688 -0.476193 1.83995
upperback 12.6432 0.717454 -3.6677
thorax -5.58218 0.926019 -5.16731
lowerneck -3.01999 -0.21568 -5.61657
upperneck -4.24942 -0.148098 -1.21712
head -0.801617 0.0379344 0.551133
rclavicle 2.34566e-014 -2.22639e-014
rhumerus -25.6282 6.94281 -92.8249
rradius 52.5079
rwrist 1.07345
rhand -26.3168 23.4349
rfingers 7.12502
rthumb 0.239811 -6.54466
lclavicle 2.34566e-014 -2.22639e-014
lhumerus -19.5322 25.8298 80.6113
lradius 31.5003
lwrist -20.4941
lhand -13.8925 -8.53848
lfingers 7.12502
lthumb 12.2328 21.0838
rfemur -2.20071 7.95662 23.0843
rtibia 60.1796
rfoot -27.4138 12.2878
rtoes -1.62441
lfemur -32.7721 -9.14739 -14.6065
ltibia 34.5288
lfoot -18.6678 0.60392
ltoes -16.9187
52
root -28.3497 16.2135 -25.2154 -9.51895 45.636 -716.999
lowerback 41.1051 -0.389236 1.80174
upperback 12.5923 0.800926 -3.71236
thorax -5.64233 0.963493 -5.22924
lowerneck -3.15772 -0.271839 -5.75044
upperneck -4.23449 -0.204776 -1.03635
head -0.773359 0.00942152 0.629367
rclavicle 4.25399e-014 0
rhumerus -25.4825 7.11505 -92.8071
rradius 53.1647
rwrist 1.09501
rhand -26.3826 23.3848
rfingers 7.12502
rthumb 0.176203 -6.59488
lclavicle 4.25399e-014 0
lhumerus -19.7705 26.5547 80.2528
lradius 31.1332
lwrist -21.087
lhand -13.9095 -8.58852
lfingers 7.12502
lthumb 12.2163 21.0347
rfemur -2.0361 7.98032 23.0595
rtibia 60.2685
rfoot -27.3281 12.4587
rtoes -1.31744
lfemur -32.982 -8.92463 -14.6316
ltibia 34.8496
lfoot -17.9236 0.150048
ltoes -17.7983
